<?xml version="1.0" encoding="UTF-8" standalone="no"?>
<svg
   version="1.1"
   id="svg137"
   xml:space="preserve"
   width="300"
   height="100"
   viewBox="0 0 300 100"
   sodipodi:docname="napis.svg"
   inkscape:version="1.1-dev (cc619ca, 2020-09-10)"
   xmlns:inkscape="http://www.inkscape.org/namespaces/inkscape"
   xmlns:sodipodi="http://sodipodi.sourceforge.net/DTD/sodipodi-0.dtd"
   xmlns="http://www.w3.org/2000/svg"
   xmlns:svg="http://www.w3.org/2000/svg"><defs
     id="defs141"><clipPath
       clipPathUnits="userSpaceOnUse"
       id="clipPath161"><path
         d="M 0,768 H 1366 V 0 H 0 Z"
         id="path159" /></clipPath></defs><sodipodi:namedview
     pagecolor="#ffffff"
     bordercolor="#666666"
     borderopacity="1"
     objecttolerance="10"
     gridtolerance="10"
     guidetolerance="10"
     inkscape:pageopacity="0"
     inkscape:pageshadow="2"
     inkscape:window-width="1920"
     inkscape:window-height="986"
     id="namedview139"
     showgrid="false"
     width="300px"
     inkscape:zoom="3.0625"
     inkscape:cx="205.55102"
     inkscape:cy="66.938775"
     inkscape:window-x="-11"
     inkscape:window-y="-11"
     inkscape:window-maximized="1"
     inkscape:current-layer="g324" /><g
     id="g143"
     inkscape:groupmode="layer"
     inkscape:label="logo-techdrog-final"
     transform="matrix(1.3333333,0,0,-1.3333333,0,1024)"><g
       id="g155"
       transform="matrix(2.8055084,0,0,2.8055084,55.287075,-1376.1347)"><g
         id="g157"
         clip-path="url(#clipPath161)"><g
           id="g324"
           transform="matrix(0.20684279,0,0,0.20684279,-75.811897,686.77986)"><g
             id="g167"
             transform="translate(653.9369,303.4492)"
             style="fill:#f9f9f9" /><g
             id="g189"
             transform="matrix(0.99303769,0,0,1,517.86455,310.15019)"><path
               d="m 0,0 c 0,-31.164 -25.263,-56.426 -56.405,-56.426 -9.198,0 -17.892,2.205 -25.557,6.111 -10.289,5.229 -18.752,13.523 -24.191,23.667 -0.903,1.7 -1.722,3.443 -2.457,5.228 -2.646,6.426 -4.137,13.461 -4.2,20.832 -0.021,0.189 -0.021,0.399 -0.021,0.588 0,31.143 25.263,56.405 56.426,56.405 18.501,0 34.943,-8.925 45.213,-22.701 2.183,-2.898 4.073,-6.006 5.648,-9.303 0.022,-0.042 0.042,-0.105 0.084,-0.168 1.995,-4.178 3.486,-8.651 4.389,-13.334 C -0.356,7.371 0,3.738 0,0"
               style="fill:#fdc205;fill-opacity:1;fill-rule:nonzero;stroke:none"
               id="path191" /></g><g
             id="g193"
             transform="matrix(0.99303769,0,0,1,410.26355,293.20099)"><path
               d="m 0,0 c 0,0 99.221,45.129 100.384,44.664 0.498,-0.2 2.008,-2.454 2.512,-3.481 0.784,-1.599 -1.459,-2.099 -1.459,-2.099 L 7.333,-12.57 Z"
               style="fill:#fff5e0;fill-opacity:1;fill-rule:nonzero;stroke:none"
               id="path195" /></g><g
             id="g197"
             transform="matrix(0.99303769,0,0,1,731.73162,466.93128)"><path
               d="m -245.20732,-144.76929 -7.79,0.756 10.584,5.04 7.35,-0.693 z m -19.571,-9.807 -8.61,0.84 12.894,6.132 8.063,-0.777 z m -24.234,-12.138 -9.618,0.924 16.002,7.644 8.988,-0.861 z m 68.186,34.167 -8.253,-4.116 -7.098,0.672 10.238,4.876 5.029,-1.264 c -1.575,3.297 -3.465,6.404 -5.649,9.302 l -101.617,-34.292 c 0.063,-7.371 1.554,-14.405 4.199,-20.832 l 13.713,6.868 10.102,-0.967 -21.358,-11.129 c 5.44,-10.143 13.903,-18.438 24.192,-23.667 l 80.891,61.214 c -0.903,4.683 -2.394,9.156 -4.389,13.335"
               style="fill:#282828;fill-opacity:1;fill-rule:nonzero;stroke:none"
               id="path199" /></g><g
             id="g201"
             transform="matrix(0.99303769,0,0,1,461.85295,362.35429)"><path
               d="m 0,0 c -28.799,0 -52.227,-23.42 -52.227,-52.204 l 0.023,-0.209 -0.002,-0.342 c 0.058,-6.667 1.364,-13.15 3.885,-19.269 0.682,-1.655 1.451,-3.292 2.282,-4.863 5.067,-9.447 12.81,-17.023 22.386,-21.887 7.259,-3.702 15.435,-5.656 23.653,-5.656 28.784,0 52.204,23.428 52.204,52.226 0,3.441 -0.333,6.827 -0.986,10.065 -0.813,4.21 -2.14,8.275 -3.95,12.122 l -0.236,0.486 c -1.405,2.941 -3.161,5.828 -5.175,8.503 C 32.037,-7.854 16.394,0 0,0 m 0,-112.83 c -9.536,0 -19.033,2.272 -27.464,6.568 -11.108,5.646 -20.097,14.438 -25.986,25.424 -0.969,1.825 -1.853,3.707 -2.638,5.612 -2.912,7.071 -4.432,14.555 -4.516,22.245 -0.018,0.26 -0.022,0.529 -0.022,0.777 0,33.417 27.196,60.603 60.626,60.603 19.033,0 37.194,-9.117 48.578,-24.389 2.318,-3.074 4.35,-6.412 6.026,-9.905 l 0.13,-0.267 c 2.178,-4.56 3.768,-9.39 4.723,-14.351 0.759,-3.744 1.147,-7.692 1.147,-11.691 0,-33.429 -27.187,-60.626 -60.604,-60.626"
               style="fill:#282828;fill-opacity:1;fill-rule:nonzero;stroke:none"
               id="path203" /></g></g></g></g></g></svg>
