<?xml version="1.0" encoding="UTF-8" standalone="no"?>
<svg
   version="1.1"
   id="svg137"
   xml:space="preserve"
   width="300"
   height="100"
   viewBox="0 0 300 100"
   sodipodi:docname="napis.svg"
   inkscape:version="1.1-dev (cc619ca, 2020-09-10)"
   xmlns:inkscape="http://www.inkscape.org/namespaces/inkscape"
   xmlns:sodipodi="http://sodipodi.sourceforge.net/DTD/sodipodi-0.dtd"
   xmlns="http://www.w3.org/2000/svg"
   xmlns:svg="http://www.w3.org/2000/svg"><defs
     id="defs141"><clipPath
       clipPathUnits="userSpaceOnUse"
       id="clipPath161"><path
         d="M 0,768 H 1366 V 0 H 0 Z"
         id="path159" /></clipPath></defs><sodipodi:namedview
     pagecolor="#ffffff"
     bordercolor="#666666"
     borderopacity="1"
     objecttolerance="10"
     gridtolerance="10"
     guidetolerance="10"
     inkscape:pageopacity="0"
     inkscape:pageshadow="2"
     inkscape:window-width="1920"
     inkscape:window-height="986"
     id="namedview139"
     showgrid="false"
     width="300px"
     inkscape:zoom="3.0625"
     inkscape:cx="62.857143"
     inkscape:cy="74.44898"
     inkscape:window-x="-11"
     inkscape:window-y="-11"
     inkscape:window-maximized="1"
     inkscape:current-layer="g324" /><g
     id="g143"
     inkscape:groupmode="layer"
     inkscape:label="logo-techdrog-final"
     transform="matrix(1.3333333,0,0,-1.3333333,0,1024)"><g
       id="g155"><g
         id="g157"
         clip-path="url(#clipPath161)"><g
           id="g324"
           transform="matrix(0.61044824,0,0,0.61044824,-300.77521,544.38447)"><g
             id="g147"
             transform="translate(530.03678,339.4832)"
             style="fill:#f9f9f9"><path
               d="M 0,0 V -37.639 H -8.897 V 0 h -11.907 v 7.937 h 32.71 V 0 Z"
               style="fill:#f9f9f9;fill-opacity:1;fill-rule:nonzero;stroke:none"
               id="path149" /></g><g
             id="g151"
             transform="translate(547.57688,301.8445)"
             style="fill:#f9f9f9"><path
               d="M 0,0 V 45.575 H 30.021 V 37.639 H 8.897 V 26.948 H 26.885 V 19.011 H 8.897 V 7.937 H 30.021 V 0 Z"
               style="fill:#f9f9f9;fill-opacity:1;fill-rule:nonzero;stroke:none"
               id="path153" /></g><g
             id="g163"
             transform="translate(599.94008,301.4607)"
             style="fill:#f9f9f9"><path
               d="m 0,0 c -4.865,0 -8.962,1.664 -12.29,4.992 -1.984,1.985 -3.201,4.289 -3.713,6.85 -0.513,2.56 -0.768,6.337 -0.768,11.33 0,4.992 0.255,8.769 0.768,11.329 0.512,2.625 1.729,4.865 3.713,6.85 3.328,3.328 7.425,4.993 12.29,4.993 8.769,0 15.234,-5.121 16.771,-14.403 H 7.745 c -0.96,3.905 -3.392,6.465 -7.682,6.465 -2.432,0 -4.352,-0.768 -5.697,-2.368 -1.855,-1.984 -2.24,-4.033 -2.24,-12.866 0,-8.834 0.385,-10.882 2.24,-12.866 1.345,-1.601 3.265,-2.369 5.697,-2.369 4.29,0 6.722,2.56 7.682,6.465 h 9.026 C 15.234,5.12 8.705,0 0,0"
               style="fill:#f9f9f9;fill-opacity:1;fill-rule:nonzero;stroke:none"
               id="path165" /></g><g
             id="g167"
             transform="translate(647.11688,301.8445)"
             style="fill:#f9f9f9"><path
               d="M 0,0 V 19.075 H -15.427 V 0 h -8.897 v 45.575 h 8.897 V 26.948 H 0 V 45.575 H 8.897 V 0 Z"
               style="fill:#f9f9f9;fill-opacity:1;fill-rule:nonzero;stroke:none"
               id="path169" /></g><path
             d="m 663.50498,328.4733 h 19.716 v -7.746 h -19.716 z"
             style="fill:#f9f9f9;fill-opacity:1;fill-rule:nonzero;stroke:none"
             id="path171" /><g
             id="g173"
             transform="translate(712.98698,336.6668)"
             style="fill:#f9f9f9"><path
               d="m 0,0 c -1.536,1.855 -3.585,2.816 -6.657,2.816 h -6.722 v -29.701 h 6.722 c 3.072,0 5.121,0.96 6.657,2.817 1.664,2.047 1.92,5.312 1.92,12.225 C 1.92,-4.93 1.664,-2.049 0,0 M 6.209,-30.47 C 3.2,-33.479 -1.089,-34.822 -5.825,-34.822 h -16.451 v 45.575 h 16.451 c 4.736,0 9.025,-1.344 12.034,-4.353 5.121,-5.121 4.608,-11.393 4.608,-18.243 0,-6.848 0.513,-13.506 -4.608,-18.627"
               style="fill:#f9f9f9;fill-opacity:1;fill-rule:nonzero;stroke:none"
               id="path175" /></g><g
             id="g177"
             transform="translate(748.57778,339.4832)"
             style="fill:#f9f9f9"><path
               d="M 0,0 H -8.386 V -12.034 H 0 c 3.904,0 6.465,2.496 6.465,6.016 C 6.465,-2.497 3.904,0 0,0 m 6.913,-37.639 -8.897,18.179 h -6.402 v -18.179 h -8.897 V 7.937 H 0.576 c 9.281,0 14.786,-6.337 14.786,-13.955 0,-6.401 -3.904,-10.369 -8.321,-11.969 l 10.178,-19.652 z"
               style="fill:#f9f9f9;fill-opacity:1;fill-rule:nonzero;stroke:none"
               id="path179" /></g><g
             id="g181"
             transform="translate(792.55438,337.4344)"
             style="fill:#f9f9f9"><path
               d="m 0,0 c -1.28,1.473 -3.265,2.433 -5.697,2.433 -2.433,0 -4.481,-0.96 -5.761,-2.433 -1.729,-1.92 -2.177,-4.032 -2.177,-12.802 0,-8.769 0.448,-10.882 2.177,-12.802 1.28,-1.472 3.328,-2.432 5.761,-2.432 2.432,0 4.417,0.96 5.697,2.432 1.729,1.92 2.24,4.033 2.24,12.802 C 2.24,-4.032 1.729,-1.92 0,0 m 6.593,-30.981 c -3.2,-3.201 -7.106,-4.993 -12.29,-4.993 -5.185,0 -9.154,1.792 -12.354,4.993 -4.609,4.609 -4.481,10.305 -4.481,18.179 0,7.873 -0.128,13.571 4.481,18.179 3.2,3.2 7.169,4.993 12.354,4.993 5.184,0 9.09,-1.793 12.29,-4.993 4.608,-4.608 4.545,-10.306 4.545,-18.179 0,-7.874 0.063,-13.57 -4.545,-18.179"
               style="fill:#f9f9f9;fill-opacity:1;fill-rule:nonzero;stroke:none"
               id="path183" /></g><g
             id="g185"
             transform="translate(839.28288,306.6453)"
             style="fill:#f9f9f9"><path
               d="m 0,0 c -3.521,-3.585 -7.745,-5.185 -12.865,-5.185 -4.865,0 -8.962,1.664 -12.29,4.993 -1.985,1.984 -3.201,4.289 -3.713,6.849 -0.513,2.561 -0.769,6.337 -0.769,11.33 0,4.992 0.256,8.77 0.769,11.329 0.512,2.625 1.728,4.866 3.713,6.85 3.328,3.328 7.425,4.993 12.29,4.993 10.369,0 15.938,-6.657 17.154,-14.595 h -8.961 c -1.089,4.417 -3.777,6.658 -8.193,6.658 -2.369,0 -4.289,-0.832 -5.697,-2.433 -1.665,-2.112 -2.177,-3.776 -2.177,-12.802 0,-8.962 0.385,-10.754 2.177,-12.866 1.343,-1.6 3.264,-2.368 5.697,-2.368 2.624,0 4.736,0.832 6.337,2.559 1.343,1.538 2.048,3.585 2.048,6.082 v 1.728 h -8.385 v 7.426 H 4.354 V 13.891 C 4.354,7.233 3.137,3.328 0,0"
               style="fill:#f9f9f9;fill-opacity:1;fill-rule:nonzero;stroke:none"
               id="path187" /></g><g
             id="g189"
             transform="translate(494.20218,308.46211)" /><g
             id="g201"
             transform="translate(437.79788,360.66621)" /><g
             id="g205"
             transform="translate(547.13738,281.0359)"
             style="fill:#f9f9f9"><path
               d="M 0,0 H -3.7 V -5.55 H 0 c 1.792,0 2.931,1.111 2.931,2.761 C 2.931,-1.139 1.792,0 0,0 M 0.198,-9.106 H -3.7 v -7.627 H -7.655 V 3.528 h 7.853 c 4.184,0 6.689,-2.874 6.689,-6.317 0,-3.443 -2.505,-6.317 -6.689,-6.317"
               style="fill:#f9f9f9;fill-opacity:1;fill-rule:nonzero;stroke:none"
               id="path207" /></g><g
             id="g209"
             transform="translate(564.32098,281.0359)"
             style="fill:#f9f9f9"><path
               d="M 0,0 H -3.729 V -5.351 H 0 c 1.735,0 2.874,1.111 2.874,2.675 C 2.874,-1.11 1.735,0 0,0 m 3.073,-16.733 -3.956,8.082 h -2.846 v -8.082 H -7.684 V 3.528 h 7.94 c 4.126,0 6.573,-2.817 6.573,-6.204 0,-2.845 -1.735,-4.609 -3.699,-5.321 l 4.524,-8.736 z"
               style="fill:#f9f9f9;fill-opacity:1;fill-rule:nonzero;stroke:none"
               id="path211" /></g><g
             id="g213"
             transform="translate(583.86688,280.1248)"
             style="fill:#f9f9f9"><path
               d="m 0,0 c -0.569,0.654 -1.451,1.082 -2.533,1.082 -1.081,0 -1.992,-0.428 -2.561,-1.082 -0.768,-0.854 -0.968,-1.793 -0.968,-5.691 0,-3.899 0.2,-4.838 0.968,-5.692 0.569,-0.654 1.48,-1.081 2.561,-1.081 1.082,0 1.964,0.427 2.533,1.081 0.769,0.854 0.996,1.793 0.996,5.692 C 0.996,-1.793 0.769,-0.854 0,0 m 2.931,-13.773 c -1.423,-1.423 -3.159,-2.22 -5.464,-2.22 -2.305,0 -4.07,0.797 -5.492,2.22 -2.049,2.048 -1.993,4.582 -1.993,8.082 0,3.5 -0.056,6.033 1.993,8.082 1.422,1.422 3.187,2.219 5.492,2.219 2.305,0 4.041,-0.797 5.464,-2.219 2.048,-2.049 2.02,-4.582 2.02,-8.082 0,-3.5 0.028,-6.034 -2.02,-8.082"
               style="fill:#f9f9f9;fill-opacity:1;fill-rule:nonzero;stroke:none"
               id="path215" /></g><g
             id="g217"
             transform="translate(594.13538,264.1316)"
             style="fill:#f9f9f9"><path
               d="m 0,0 c -2.191,0 -3.699,0.569 -5.208,2.077 l 2.618,2.59 C -1.935,4.013 -1.309,3.529 0,3.529 c 1.936,0 3.188,1.138 3.188,3.472 V 20.433 H 7.143 V 6.83 C 7.143,2.362 3.757,0 0,0"
               style="fill:#f9f9f9;fill-opacity:1;fill-rule:nonzero;stroke:none"
               id="path219" /></g><g
             id="g221"
             transform="translate(605.03098,264.3025)"
             style="fill:#f9f9f9"><path
               d="M 0,0 V 20.262 H 13.347 V 16.733 H 3.955 V 11.98 h 7.997 V 8.452 H 3.955 V 3.528 h 9.392 V 0 Z"
               style="fill:#f9f9f9;fill-opacity:1;fill-rule:nonzero;stroke:none"
               id="path223" /></g><g
             id="g225"
             transform="translate(633.31418,264.3025)"
             style="fill:#f9f9f9"><path
               d="M 0,0 -5.208,9.221 -7.826,6.09 V 0 h -3.955 v 20.262 h 3.955 V 11.44 l 7.143,8.822 H 4.126 L -2.59,12.208 4.61,0 Z"
               style="fill:#f9f9f9;fill-opacity:1;fill-rule:nonzero;stroke:none"
               id="path227" /></g><g
             id="g229"
             transform="translate(647.48108,281.0359)"
             style="fill:#f9f9f9"><path
               d="M 0,0 V -16.733 H -3.956 V 0 H -9.249 V 3.528 H 5.293 V 0 Z"
               style="fill:#f9f9f9;fill-opacity:1;fill-rule:nonzero;stroke:none"
               id="path231" /></g><g
             id="g233"
             transform="translate(663.01528,272.6121)"
             style="fill:#f9f9f9"><path
               d="M 0,0 V -8.31 H -3.927 V 0 l -6.091,11.952 h 4.298 l 3.784,-8.167 3.729,8.167 H 6.09 Z"
               style="fill:#f9f9f9;fill-opacity:1;fill-rule:nonzero;stroke:none"
               id="path235" /></g><g
             id="g237"
             transform="translate(696.62958,279.784)"
             style="fill:#f9f9f9"><path
               d="m 0,0 c -0.684,0.825 -1.594,1.252 -2.96,1.252 h -2.988 v -13.205 h 2.988 c 1.366,0 2.276,0.428 2.96,1.253 0.739,0.91 0.854,2.361 0.854,5.434 C 0.854,-2.191 0.739,-0.911 0,0 m 2.76,-13.546 c -1.337,-1.338 -3.244,-1.935 -5.35,-1.935 H -9.903 V 4.78 h 7.313 c 2.106,0 4.013,-0.597 5.35,-1.934 2.277,-2.278 2.049,-5.066 2.049,-8.112 0,-3.045 0.228,-6.004 -2.049,-8.28"
               style="fill:#f9f9f9;fill-opacity:1;fill-rule:nonzero;stroke:none"
               id="path239" /></g><g
             id="g241"
             transform="translate(712.44698,281.0359)"
             style="fill:#f9f9f9"><path
               d="M 0,0 H -3.729 V -5.351 H 0 c 1.735,0 2.874,1.111 2.874,2.675 C 2.874,-1.11 1.735,0 0,0 m 3.073,-16.733 -3.956,8.082 h -2.846 v -8.082 H -7.684 V 3.528 h 7.94 c 4.126,0 6.573,-2.817 6.573,-6.204 0,-2.845 -1.735,-4.609 -3.699,-5.321 l 4.524,-8.736 z"
               style="fill:#f9f9f9;fill-opacity:1;fill-rule:nonzero;stroke:none"
               id="path243" /></g><g
             id="g245"
             transform="translate(731.99288,280.1248)"
             style="fill:#f9f9f9"><path
               d="m 0,0 c -0.569,0.654 -1.451,1.082 -2.533,1.082 -1.081,0 -1.992,-0.428 -2.561,-1.082 -0.768,-0.854 -0.968,-1.793 -0.968,-5.691 0,-3.899 0.2,-4.838 0.968,-5.692 0.569,-0.654 1.48,-1.081 2.561,-1.081 1.082,0 1.964,0.427 2.533,1.081 0.769,0.854 0.996,1.793 0.996,5.692 C 0.996,-1.793 0.769,-0.854 0,0 m 2.931,-13.773 c -1.423,-1.423 -3.159,-2.22 -5.464,-2.22 -2.305,0 -4.07,0.797 -5.492,2.22 -2.049,2.048 -1.993,4.582 -1.993,8.082 0,3.5 -0.056,6.033 1.993,8.082 1.422,1.422 3.187,2.219 5.492,2.219 2.305,0 4.041,-0.797 5.464,-2.219 2.048,-2.049 2.02,-4.582 2.02,-8.082 0,-3.5 0.028,-6.034 -2.02,-8.082"
               style="fill:#f9f9f9;fill-opacity:1;fill-rule:nonzero;stroke:none"
               id="path247" /></g><g
             id="g249"
             transform="translate(752.76138,266.4373)"
             style="fill:#f9f9f9"><path
               d="m 0,0 c -1.564,-1.594 -3.443,-2.306 -5.72,-2.306 -2.163,0 -3.984,0.741 -5.464,2.22 -0.881,0.882 -1.422,1.907 -1.65,3.045 -0.228,1.139 -0.342,2.817 -0.342,5.037 0,2.22 0.114,3.899 0.342,5.037 0.228,1.167 0.769,2.163 1.65,3.045 1.48,1.48 3.301,2.22 5.464,2.22 4.611,0 7.086,-2.96 7.627,-6.488 h -3.984 c -0.484,1.963 -1.679,2.96 -3.643,2.96 -1.052,0 -1.906,-0.371 -2.532,-1.082 -0.74,-0.939 -0.968,-1.679 -0.968,-5.692 0,-3.984 0.171,-4.781 0.968,-5.72 0.598,-0.712 1.451,-1.052 2.532,-1.052 1.167,0 2.107,0.369 2.818,1.137 0.597,0.684 0.911,1.594 0.911,2.704 V 5.833 H -5.72 V 9.135 H 1.936 V 6.175 C 1.936,3.215 1.395,1.479 0,0"
               style="fill:#f9f9f9;fill-opacity:1;fill-rule:nonzero;stroke:none"
               id="path251" /></g><g
             id="g253"
             transform="translate(767.01528,280.1248)"
             style="fill:#f9f9f9"><path
               d="m 0,0 c -0.569,0.654 -1.451,1.082 -2.533,1.082 -1.081,0 -1.992,-0.428 -2.561,-1.082 -0.768,-0.854 -0.968,-1.793 -0.968,-5.691 0,-3.899 0.2,-4.838 0.968,-5.692 0.569,-0.654 1.48,-1.081 2.561,-1.081 1.082,0 1.964,0.427 2.533,1.081 0.769,0.854 0.996,1.793 0.996,5.692 C 0.996,-1.793 0.769,-0.854 0,0 m 2.931,-13.773 c -1.423,-1.423 -3.159,-2.22 -5.464,-2.22 -2.305,0 -4.07,0.797 -5.492,2.22 -2.049,2.048 -1.993,4.582 -1.993,8.082 0,3.5 -0.056,6.033 1.993,8.082 1.422,1.422 3.187,2.219 5.492,2.219 2.305,0 4.041,-0.797 5.464,-2.219 2.048,-2.049 2.02,-4.582 2.02,-8.082 0,-3.5 0.028,-6.034 -2.02,-8.082"
               style="fill:#f9f9f9;fill-opacity:1;fill-rule:nonzero;stroke:none"
               id="path255" /></g><g
             id="g257"
             transform="translate(792.28098,264.3025)"
             style="fill:#f9f9f9"><path
               d="M 0,0 H -3.301 L -7.029,12.294 -10.757,0 h -3.301 l -5.407,20.262 h 4.126 l 3.131,-12.778 3.699,12.778 h 2.96 L -1.85,7.484 1.31,20.262 h 4.126 z"
               style="fill:#f9f9f9;fill-opacity:1;fill-rule:nonzero;stroke:none"
               id="path259" /></g><g
             id="g261"
             transform="translate(799.53188,264.3025)"
             style="fill:#f9f9f9"><path
               d="M 0,0 V 20.262 H 13.347 V 16.733 H 3.955 V 11.98 h 7.997 V 8.452 H 3.955 V 3.528 h 9.392 V 0 Z"
               style="fill:#f9f9f9;fill-opacity:1;fill-rule:nonzero;stroke:none"
               id="path263" /></g></g></g></g></g></svg>
